<mxfile host="app.diagrams.net" agent="Mozilla/5.0 (Windows NT 10.0; Win64; x64) AppleWebKit/537.36 (KHTML, like Gecko) Chrome/141.0.0.0 Safari/537.36" version="28.2.8">
  <diagram name="DSS Package Diagram" id="package-diagram">
    <mxGraphModel dx="3184" dy="826" grid="1" gridSize="10" guides="1" tooltips="1" connect="1" arrows="1" fold="1" page="1" pageScale="1" pageWidth="1600" pageHeight="1200" math="0" shadow="0">
      <root>
        <mxCell id="0" />
        <mxCell id="1" parent="0" />
        <mxCell id="title" value="DSS Application - Package Diagram" style="text;html=1;strokeColor=none;fillColor=none;align=center;verticalAlign=middle;whiteSpace=wrap;rounded=0;fontSize=24;fontStyle=1" parent="1" vertex="1">
          <mxGeometry x="500" y="20" width="600" height="40" as="geometry" />
        </mxCell>
        <mxCell id="main-package" value="" style="shape=folder;fontStyle=1;spacingTop=10;tabWidth=40;tabHeight=14;tabPosition=left;html=1;fillColor=#dae8fc;strokeColor=#6c8ebf;fontSize=16;" parent="1" vertex="1">
          <mxGeometry x="40" y="80" width="1520" height="1080" as="geometry" />
        </mxCell>
        <mxCell id="presentation-layer" value="Presentation Layer" style="swimlane;fontStyle=1;childLayout=stackLayout;horizontal=1;startSize=30;horizontalStack=0;resizeParent=1;resizeParentMax=0;resizeLast=0;collapsible=1;marginBottom=0;fillColor=#fff2cc;strokeColor=#d6b656;fontSize=14;" parent="1" vertex="1">
          <mxGeometry x="80" y="140" width="700" height="200" as="geometry" />
        </mxCell>
        <mxCell id="controller-pkg" value="controller" style="shape=folder;fontStyle=1;spacingTop=10;tabWidth=60;tabHeight=14;tabPosition=left;html=1;fillColor=#e1d5e7;strokeColor=#9673a6;" parent="presentation-layer" vertex="1">
          <mxGeometry x="20" y="40" width="300" height="140" as="geometry" />
        </mxCell>
        <mxCell id="controller-content" value="+ AuthController&#xa;+ DashboardController&#xa;+ InventoryController&#xa;+ MarketingController&#xa;+ SalesPolicyController&#xa;+ StaffController" style="text;strokeColor=none;fillColor=none;align=left;verticalAlign=top;spacingLeft=4;spacingRight=4;overflow=hidden;rotatable=0;points=[[0,0.5],[1,0.5]];portConstraint=eastwest;" parent="presentation-layer" vertex="1">
          <mxGeometry x="30" y="70" width="280" height="100" as="geometry" />
        </mxCell>
        <mxCell id="api-pkg" value="api (REST)" style="shape=folder;fontStyle=1;spacingTop=10;tabWidth=60;tabHeight=14;tabPosition=left;html=1;fillColor=#e1d5e7;strokeColor=#9673a6;" parent="presentation-layer" vertex="1">
          <mxGeometry x="360" y="40" width="300" height="140" as="geometry" />
        </mxCell>
        <mxCell id="api-content" value="+ InventoryApi&#xa;+ MarketingApi&#xa;+ PolicyApi&#xa;+ ReportApi&#xa;+ StaffApi" style="text;strokeColor=none;fillColor=none;align=left;verticalAlign=top;spacingLeft=4;spacingRight=4;overflow=hidden;rotatable=0;points=[[0,0.5],[1,0.5]];portConstraint=eastwest;" parent="presentation-layer" vertex="1">
          <mxGeometry x="370" y="70" width="280" height="100" as="geometry" />
        </mxCell>
        <mxCell id="business-layer" value="Business Logic Layer" style="swimlane;fontStyle=1;childLayout=stackLayout;horizontal=1;startSize=30;horizontalStack=0;resizeParent=1;resizeParentMax=0;resizeLast=0;collapsible=1;marginBottom=0;fillColor=#d5e8d4;strokeColor=#82b366;fontSize=14;" parent="1" vertex="1">
          <mxGeometry x="80" y="380" width="700" height="180" as="geometry" />
        </mxCell>
        <mxCell id="service-pkg" value="service" style="shape=folder;fontStyle=1;spacingTop=10;tabWidth=60;tabHeight=14;tabPosition=left;html=1;fillColor=#d5e8d4;strokeColor=#82b366;" parent="business-layer" vertex="1">
          <mxGeometry x="200" y="40" width="300" height="130" as="geometry" />
        </mxCell>
        <mxCell id="service-content" value="+ InventoryService&#xa;+ MarketingService&#xa;+ PolicyService&#xa;+ ReportService&#xa;+ StaffService&#xa;+ UserService" style="text;strokeColor=none;fillColor=none;align=left;verticalAlign=top;spacingLeft=4;spacingRight=4;overflow=hidden;rotatable=0;points=[[0,0.5],[1,0.5]];portConstraint=eastwest;" parent="business-layer" vertex="1">
          <mxGeometry x="210" y="70" width="280" height="100" as="geometry" />
        </mxCell>
        <mxCell id="data-layer" value="Data Access Layer" style="swimlane;fontStyle=1;childLayout=stackLayout;horizontal=1;startSize=30;horizontalStack=0;resizeParent=1;resizeParentMax=0;resizeLast=0;collapsible=1;marginBottom=0;fillColor=#f8cecc;strokeColor=#b85450;fontSize=14;" parent="1" vertex="1">
          <mxGeometry x="80" y="600" width="700" height="260" as="geometry" />
        </mxCell>
        <mxCell id="repository-pkg" value="repository" style="shape=folder;fontStyle=1;spacingTop=10;tabWidth=70;tabHeight=14;tabPosition=left;html=1;fillColor=#f8cecc;strokeColor=#b85450;" parent="data-layer" vertex="1">
          <mxGeometry x="20" y="40" width="320" height="200" as="geometry" />
        </mxCell>
        <mxCell id="jpa-repo-pkg" value="jpa" style="shape=folder;fontStyle=0;spacingTop=10;tabWidth=40;tabHeight=12;tabPosition=left;html=1;fillColor=#ffe6cc;strokeColor=#d79b00;" parent="data-layer" vertex="1">
          <mxGeometry x="40" y="80" width="130" height="140" as="geometry" />
        </mxCell>
        <mxCell id="jpa-repo-content" value="CustomerRepository&#xa;OrderRepository&#xa;ProductRepository&#xa;UserRepository" style="text;strokeColor=none;fillColor=none;align=left;verticalAlign=top;spacingLeft=4;spacingRight=4;overflow=hidden;rotatable=0;points=[[0,0.5],[1,0.5]];portConstraint=eastwest;fontSize=10;" parent="data-layer" vertex="1">
          <mxGeometry x="45" y="105" width="120" height="70" as="geometry" />
        </mxCell>
        <mxCell id="mongo-repo-pkg" value="mongo" style="shape=folder;fontStyle=0;spacingTop=10;tabWidth=50;tabHeight=12;tabPosition=left;html=1;fillColor=#ffe6cc;strokeColor=#d79b00;" parent="data-layer" vertex="1">
          <mxGeometry x="190" y="80" width="130" height="80" as="geometry" />
        </mxCell>
        <mxCell id="mongo-repo-content" value="RuleCacheRepository" style="text;strokeColor=none;fillColor=none;align=left;verticalAlign=top;spacingLeft=4;spacingRight=4;overflow=hidden;rotatable=0;points=[[0,0.5],[1,0.5]];portConstraint=eastwest;fontSize=10;" parent="data-layer" vertex="1">
          <mxGeometry x="195" y="105" width="120" height="30" as="geometry" />
        </mxCell>
        <mxCell id="domain-pkg" value="domain" style="shape=folder;fontStyle=1;spacingTop=10;tabWidth=60;tabHeight=14;tabPosition=left;html=1;fillColor=#f8cecc;strokeColor=#b85450;" parent="data-layer" vertex="1">
          <mxGeometry x="360" y="40" width="320" height="200" as="geometry" />
        </mxCell>
        <mxCell id="jpa-domain-pkg" value="jpa" style="shape=folder;fontStyle=0;spacingTop=10;tabWidth=40;tabHeight=12;tabPosition=left;html=1;fillColor=#ffe6cc;strokeColor=#d79b00;" parent="data-layer" vertex="1">
          <mxGeometry x="380" y="80" width="130" height="140" as="geometry" />
        </mxCell>
        <mxCell id="jpa-domain-content" value="Customer&#xa;Order&#xa;OrderItem&#xa;Product&#xa;User" style="text;strokeColor=none;fillColor=none;align=left;verticalAlign=top;spacingLeft=4;spacingRight=4;overflow=hidden;rotatable=0;points=[[0,0.5],[1,0.5]];portConstraint=eastwest;fontSize=10;" parent="data-layer" vertex="1">
          <mxGeometry x="385" y="105" width="120" height="80" as="geometry" />
        </mxCell>
        <mxCell id="domain-other" value="RuleCache" style="text;strokeColor=none;fillColor=none;align=left;verticalAlign=top;spacingLeft=4;spacingRight=4;overflow=hidden;rotatable=0;points=[[0,0.5],[1,0.5]];portConstraint=eastwest;fontSize=10;" parent="data-layer" vertex="1">
          <mxGeometry x="530" y="105" width="120" height="30" as="geometry" />
        </mxCell>
        <mxCell id="cross-cutting" value="Cross-Cutting Concerns" style="swimlane;fontStyle=1;childLayout=stackLayout;horizontal=1;startSize=30;horizontalStack=0;resizeParent=1;resizeParentMax=0;resizeLast=0;collapsible=1;marginBottom=0;fillColor=#f5f5f5;strokeColor=#666666;fontSize=14;" parent="1" vertex="1">
          <mxGeometry x="820" y="140" width="700" height="720" as="geometry" />
        </mxCell>
        <mxCell id="dto-pkg" value="dto (Data Transfer Objects)" style="shape=folder;fontStyle=1;spacingTop=10;tabWidth=100;tabHeight=14;tabPosition=left;html=1;fillColor=#e1d5e7;strokeColor=#9673a6;" parent="cross-cutting" vertex="1">
          <mxGeometry x="200" y="50" width="280" height="120" as="geometry" />
        </mxCell>
        <mxCell id="dto-content" value="+ AnomalyDTO&#xa;+ PolicySimResultDTO&#xa;+ RecommendationDTO&#xa;+ RfmSegmentDTO" style="text;strokeColor=none;fillColor=none;align=left;verticalAlign=top;spacingLeft=4;spacingRight=4;overflow=hidden;rotatable=0;points=[[0,0.5],[1,0.5]];portConstraint=eastwest;" parent="cross-cutting" vertex="1">
          <mxGeometry x="210" y="80" width="260" height="80" as="geometry" />
        </mxCell>
        <mxCell id="config-pkg" value="config (Configuration)" style="shape=folder;fontStyle=1;spacingTop=10;tabWidth=100;tabHeight=14;tabPosition=left;html=1;fillColor=#dae8fc;strokeColor=#6c8ebf;" parent="cross-cutting" vertex="1">
          <mxGeometry x="200" y="200" width="280" height="120" as="geometry" />
        </mxCell>
        <mxCell id="config-content" value="+ JpaConfig&#xa;+ MongoConfig&#xa;+ SecurityConfig&#xa;+ WebConfig" style="text;strokeColor=none;fillColor=none;align=left;verticalAlign=top;spacingLeft=4;spacingRight=4;overflow=hidden;rotatable=0;points=[[0,0.5],[1,0.5]];portConstraint=eastwest;" parent="cross-cutting" vertex="1">
          <mxGeometry x="210" y="230" width="260" height="80" as="geometry" />
        </mxCell>
        <mxCell id="util-pkg" value="util (Utilities)" style="shape=folder;fontStyle=1;spacingTop=10;tabWidth=100;tabHeight=14;tabPosition=left;html=1;fillColor=#d5e8d4;strokeColor=#82b366;" parent="cross-cutting" vertex="1">
          <mxGeometry x="200" y="350" width="280" height="120" as="geometry" />
        </mxCell>
        <mxCell id="util-content" value="+ CsvExcelParser&#xa;+ DateUtil&#xa;+ SecurityUtil&#xa;+ ValidationUtil" style="text;strokeColor=none;fillColor=none;align=left;verticalAlign=top;spacingLeft=4;spacingRight=4;overflow=hidden;rotatable=0;points=[[0,0.5],[1,0.5]];portConstraint=eastwest;" parent="cross-cutting" vertex="1">
          <mxGeometry x="210" y="380" width="260" height="80" as="geometry" />
        </mxCell>
        <mxCell id="main-app-pkg" value="DssApplication (Main)" style="shape=folder;fontStyle=1;spacingTop=10;tabWidth=100;tabHeight=14;tabPosition=left;html=1;fillColor=#f8cecc;strokeColor=#b85450;" parent="cross-cutting" vertex="1">
          <mxGeometry x="200" y="500" width="280" height="80" as="geometry" />
        </mxCell>
        <mxCell id="main-app-content" value="+ main(String[] args)&#xa;@SpringBootApplication" style="text;strokeColor=none;fillColor=none;align=left;verticalAlign=top;spacingLeft=4;spacingRight=4;overflow=hidden;rotatable=0;points=[[0,0.5],[1,0.5]];portConstraint=eastwest;" parent="cross-cutting" vertex="1">
          <mxGeometry x="210" y="530" width="260" height="40" as="geometry" />
        </mxCell>
        <mxCell id="external-systems" value="External Systems" style="swimlane;fontStyle=1;childLayout=stackLayout;horizontal=1;startSize=30;horizontalStack=0;resizeParent=1;resizeParentMax=0;resizeLast=0;collapsible=1;marginBottom=0;fillColor=#ffe6cc;strokeColor=#d79b00;fontSize=14;" parent="1" vertex="1">
          <mxGeometry x="80" y="900" width="700" height="220" as="geometry" />
        </mxCell>
        <mxCell id="mysql-db" value="MySQL Database" style="shape=cylinder3;whiteSpace=wrap;html=1;boundedLbl=1;backgroundOutline=1;size=15;fillColor=#dae8fc;strokeColor=#6c8ebf;fontStyle=1" parent="external-systems" vertex="1">
          <mxGeometry x="50" y="50" width="120" height="140" as="geometry" />
        </mxCell>
        <mxCell id="mysql-content" value="Tables:&#xa;- customers&#xa;- orders&#xa;- order_items&#xa;- products&#xa;- users" style="text;strokeColor=none;fillColor=none;align=left;verticalAlign=top;spacingLeft=4;spacingRight=4;overflow=hidden;rotatable=0;points=[[0,0.5],[1,0.5]];portConstraint=eastwest;fontSize=10;" parent="external-systems" vertex="1">
          <mxGeometry x="40" y="100" width="140" height="80" as="geometry" />
        </mxCell>
        <mxCell id="mongo-db" value="MongoDB" style="shape=cylinder3;whiteSpace=wrap;html=1;boundedLbl=1;backgroundOutline=1;size=15;fillColor=#d5e8d4;strokeColor=#82b366;fontStyle=1" parent="external-systems" vertex="1">
          <mxGeometry x="220" y="50" width="120" height="140" as="geometry" />
        </mxCell>
        <mxCell id="mongo-content" value="Collections:&#xa;- rule_cache&#xa;- analytics" style="text;strokeColor=none;fillColor=none;align=left;verticalAlign=top;spacingLeft=4;spacingRight=4;overflow=hidden;rotatable=0;points=[[0,0.5],[1,0.5]];portConstraint=eastwest;fontSize=10;" parent="external-systems" vertex="1">
          <mxGeometry x="210" y="100" width="140" height="50" as="geometry" />
        </mxCell>
        <mxCell id="ml-service" value="Python ML Service" style="rounded=1;whiteSpace=wrap;html=1;fillColor=#fff2cc;strokeColor=#d6b656;fontStyle=1;verticalAlign=top;" parent="external-systems" vertex="1">
          <mxGeometry x="390" y="50" width="280" height="140" as="geometry" />
        </mxCell>
        <mxCell id="ml-content" value="model-service/&#xa;- Anomaly Detection&#xa;- RFM Analysis&#xa;- Association Rules&#xa;- Return Risk Prediction" style="text;strokeColor=none;fillColor=none;align=left;verticalAlign=top;spacingLeft=4;spacingRight=4;overflow=hidden;rotatable=0;points=[[0,0.5],[1,0.5]];portConstraint=eastwest;fontSize=10;" parent="external-systems" vertex="1">
          <mxGeometry x="400" y="80" width="260" height="100" as="geometry" />
        </mxCell>
        <mxCell id="arrow1" style="edgeStyle=orthogonalEdgeStyle;rounded=0;orthogonalLoop=1;jettySize=auto;html=1;entryX=0.25;entryY=0;entryDx=0;entryDy=0;dashed=1;strokeWidth=2;strokeColor=#666666;" parent="1" source="controller-pkg" target="service-pkg" edge="1">
          <mxGeometry relative="1" as="geometry">
            <Array as="points">
              <mxPoint x="230" y="360" />
              <mxPoint x="355" y="360" />
            </Array>
          </mxGeometry>
        </mxCell>
        <mxCell id="arrow1-label" value="uses" style="edgeLabel;html=1;align=center;verticalAlign=middle;resizable=0;points=[];fontSize=10;fontColor=#666666;" parent="arrow1" vertex="1" connectable="0">
          <mxGeometry x="-0.2" y="1" relative="1" as="geometry">
            <mxPoint as="offset" />
          </mxGeometry>
        </mxCell>
        <mxCell id="arrow2" style="edgeStyle=orthogonalEdgeStyle;rounded=0;orthogonalLoop=1;jettySize=auto;html=1;entryX=0.75;entryY=0;entryDx=0;entryDy=0;dashed=1;strokeWidth=2;strokeColor=#666666;" parent="1" source="api-pkg" target="service-pkg" edge="1">
          <mxGeometry relative="1" as="geometry">
            <Array as="points">
              <mxPoint x="590" y="360" />
              <mxPoint x="505" y="360" />
            </Array>
          </mxGeometry>
        </mxCell>
        <mxCell id="arrow2-label" value="uses" style="edgeLabel;html=1;align=center;verticalAlign=middle;resizable=0;points=[];fontSize=10;fontColor=#666666;" parent="arrow2" vertex="1" connectable="0">
          <mxGeometry x="-0.2" y="1" relative="1" as="geometry">
            <mxPoint as="offset" />
          </mxGeometry>
        </mxCell>
        <mxCell id="arrow3" style="edgeStyle=orthogonalEdgeStyle;rounded=0;orthogonalLoop=1;jettySize=auto;html=1;entryX=0.5;entryY=0;entryDx=0;entryDy=0;dashed=1;strokeWidth=2;strokeColor=#666666;" parent="1" source="service-pkg" target="repository-pkg" edge="1">
          <mxGeometry relative="1" as="geometry">
            <Array as="points">
              <mxPoint x="430" y="580" />
              <mxPoint x="200" y="580" />
            </Array>
          </mxGeometry>
        </mxCell>
        <mxCell id="arrow3-label" value="uses" style="edgeLabel;html=1;align=center;verticalAlign=middle;resizable=0;points=[];fontSize=10;fontColor=#666666;" parent="arrow3" vertex="1" connectable="0">
          <mxGeometry x="-0.2" y="1" relative="1" as="geometry">
            <mxPoint as="offset" />
          </mxGeometry>
        </mxCell>
        <mxCell id="arrow4" style="edgeStyle=orthogonalEdgeStyle;rounded=0;orthogonalLoop=1;jettySize=auto;html=1;entryX=0.5;entryY=0;entryDx=0;entryDy=0;dashed=1;strokeWidth=2;strokeColor=#666666;" parent="1" source="service-pkg" target="domain-pkg" edge="1">
          <mxGeometry relative="1" as="geometry">
            <Array as="points">
              <mxPoint x="430" y="580" />
              <mxPoint x="560" y="580" />
            </Array>
          </mxGeometry>
        </mxCell>
        <mxCell id="arrow4-label" value="uses" style="edgeLabel;html=1;align=center;verticalAlign=middle;resizable=0;points=[];fontSize=10;fontColor=#666666;" parent="arrow4" vertex="1" connectable="0">
          <mxGeometry x="-0.2" y="1" relative="1" as="geometry">
            <mxPoint as="offset" />
          </mxGeometry>
        </mxCell>
        <mxCell id="arrow5" style="edgeStyle=orthogonalEdgeStyle;rounded=0;orthogonalLoop=1;jettySize=auto;html=1;entryX=0.5;entryY=0;entryDx=0;entryDy=0;entryPerimeter=0;strokeWidth=2;strokeColor=#6c8ebf;" parent="1" source="jpa-repo-pkg" target="mysql-db" edge="1">
          <mxGeometry relative="1" as="geometry">
            <Array as="points">
              <mxPoint x="105" y="880" />
              <mxPoint x="150" y="880" />
            </Array>
          </mxGeometry>
        </mxCell>
        <mxCell id="arrow5-label" value="manages" style="edgeLabel;html=1;align=center;verticalAlign=middle;resizable=0;points=[];fontSize=10;fontColor=#6c8ebf;fontStyle=1" parent="arrow5" vertex="1" connectable="0">
          <mxGeometry x="-0.2" y="1" relative="1" as="geometry">
            <mxPoint as="offset" />
          </mxGeometry>
        </mxCell>
        <mxCell id="arrow6" style="edgeStyle=orthogonalEdgeStyle;rounded=0;orthogonalLoop=1;jettySize=auto;html=1;entryX=0.5;entryY=0;entryDx=0;entryDy=0;entryPerimeter=0;strokeWidth=2;strokeColor=#82b366;" parent="1" source="mongo-repo-pkg" target="mongo-db" edge="1">
          <mxGeometry relative="1" as="geometry">
            <Array as="points">
              <mxPoint x="255" y="880" />
              <mxPoint x="320" y="880" />
            </Array>
          </mxGeometry>
        </mxCell>
        <mxCell id="arrow6-label" value="manages" style="edgeLabel;html=1;align=center;verticalAlign=middle;resizable=0;points=[];fontSize=10;fontColor=#82b366;fontStyle=1" parent="arrow6" vertex="1" connectable="0">
          <mxGeometry x="-0.2" y="1" relative="1" as="geometry">
            <mxPoint as="offset" />
          </mxGeometry>
        </mxCell>
        <mxCell id="arrow7" style="edgeStyle=orthogonalEdgeStyle;rounded=0;orthogonalLoop=1;jettySize=auto;html=1;entryX=0.5;entryY=0;entryDx=0;entryDy=0;strokeWidth=2;strokeColor=#d6b656;dashed=1;" parent="1" source="service-pkg" target="ml-service" edge="1">
          <mxGeometry relative="1" as="geometry">
            <Array as="points">
              <mxPoint x="430" y="580" />
              <mxPoint x="10" y="580" />
              <mxPoint x="10" y="880" />
              <mxPoint x="570" y="880" />
            </Array>
          </mxGeometry>
        </mxCell>
        <mxCell id="arrow7-label" value="HTTP calls" style="edgeLabel;html=1;align=center;verticalAlign=middle;resizable=0;points=[];fontSize=10;fontColor=#d6b656;fontStyle=1" parent="arrow7" vertex="1" connectable="0">
          <mxGeometry x="-0.2" y="1" relative="1" as="geometry">
            <mxPoint as="offset" />
          </mxGeometry>
        </mxCell>
        <mxCell id="arrow8" style="edgeStyle=orthogonalEdgeStyle;rounded=0;orthogonalLoop=1;jettySize=auto;html=1;entryX=0;entryY=0.5;entryDx=0;entryDy=0;dashed=1;strokeWidth=1;strokeColor=#9673a6;" parent="1" source="controller-pkg" target="dto-pkg" edge="1">
          <mxGeometry relative="1" as="geometry">
            <Array as="points">
              <mxPoint x="380" y="220" />
              <mxPoint x="800" y="220" />
              <mxPoint x="800" y="250" />
            </Array>
          </mxGeometry>
        </mxCell>
        <mxCell id="arrow9" style="edgeStyle=orthogonalEdgeStyle;rounded=0;orthogonalLoop=1;jettySize=auto;html=1;entryX=0;entryY=0.5;entryDx=0;entryDy=0;dashed=1;strokeWidth=1;strokeColor=#9673a6;" parent="1" source="api-pkg" target="dto-pkg" edge="1">
          <mxGeometry relative="1" as="geometry">
            <Array as="points">
              <mxPoint x="740" y="220" />
              <mxPoint x="800" y="220" />
              <mxPoint x="800" y="250" />
            </Array>
          </mxGeometry>
        </mxCell>
        <mxCell id="arrow10" style="edgeStyle=orthogonalEdgeStyle;rounded=0;orthogonalLoop=1;jettySize=auto;html=1;entryX=0;entryY=0.75;entryDx=0;entryDy=0;dashed=1;strokeWidth=1;strokeColor=#82b366;" parent="1" source="service-pkg" target="dto-pkg" edge="1">
          <mxGeometry relative="1" as="geometry">
            <Array as="points">
              <mxPoint x="780" y="450" />
              <mxPoint x="780" y="280" />
            </Array>
          </mxGeometry>
        </mxCell>
        <mxCell id="arrow11" style="edgeStyle=orthogonalEdgeStyle;rounded=0;orthogonalLoop=1;jettySize=auto;html=1;entryX=0;entryY=0.5;entryDx=0;entryDy=0;dashed=1;strokeWidth=1;strokeColor=#82b366;" parent="1" source="service-pkg" target="util-pkg" edge="1">
          <mxGeometry relative="1" as="geometry">
            <Array as="points">
              <mxPoint x="780" y="450" />
              <mxPoint x="780" y="550" />
            </Array>
          </mxGeometry>
        </mxCell>
        <mxCell id="arrow12" style="edgeStyle=orthogonalEdgeStyle;rounded=0;orthogonalLoop=1;jettySize=auto;html=1;entryX=1;entryY=0.5;entryDx=0;entryDy=0;dashed=1;strokeWidth=1;strokeColor=#6c8ebf;" parent="1" source="config-pkg" target="service-pkg" edge="1">
          <mxGeometry relative="1" as="geometry">
            <Array as="points">
              <mxPoint x="800" y="400" />
              <mxPoint x="800" y="445" />
            </Array>
          </mxGeometry>
        </mxCell>
        <mxCell id="arrow12-label" value="configures" style="edgeLabel;html=1;align=center;verticalAlign=middle;resizable=0;points=[];fontSize=9;fontColor=#6c8ebf;" parent="arrow12" vertex="1" connectable="0">
          <mxGeometry x="-0.2" y="1" relative="1" as="geometry">
            <mxPoint as="offset" />
          </mxGeometry>
        </mxCell>
        <mxCell id="arrow13" style="edgeStyle=orthogonalEdgeStyle;rounded=0;orthogonalLoop=1;jettySize=auto;html=1;entryX=0.5;entryY=1;entryDx=0;entryDy=0;strokeWidth=2;strokeColor=#b85450;" parent="1" source="main-app-pkg" target="config-pkg" edge="1">
          <mxGeometry relative="1" as="geometry">
            <Array as="points">
              <mxPoint x="1160" y="680" />
              <mxPoint x="1160" y="480" />
            </Array>
          </mxGeometry>
        </mxCell>
        <mxCell id="arrow13-label" value="initializes" style="edgeLabel;html=1;align=center;verticalAlign=middle;resizable=0;points=[];fontSize=10;fontColor=#b85450;fontStyle=1" parent="arrow13" vertex="1" connectable="0">
          <mxGeometry x="-0.2" y="1" relative="1" as="geometry">
            <mxPoint as="offset" />
          </mxGeometry>
        </mxCell>
        <mxCell id="legend" value="Legend" style="swimlane;fontStyle=1;childLayout=stackLayout;horizontal=1;startSize=30;horizontalStack=0;resizeParent=1;resizeParentMax=0;resizeLast=0;collapsible=1;marginBottom=0;fillColor=#f5f5f5;strokeColor=#666666;fontSize=12;" parent="1" vertex="1">
          <mxGeometry x="820" y="900" width="700" height="220" as="geometry" />
        </mxCell>
        <mxCell id="legend1" value="→ Solid line: Direct dependency / manages relationship" style="text;strokeColor=none;fillColor=none;align=left;verticalAlign=middle;spacingLeft=10;spacingRight=4;overflow=hidden;rotatable=0;points=[[0,0.5],[1,0.5]];portConstraint=eastwest;fontSize=11;" parent="legend" vertex="1">
          <mxGeometry y="30" width="700" height="30" as="geometry" />
        </mxCell>
        <mxCell id="legend2" value="⇢ Dashed line: Uses / depends on" style="text;strokeColor=none;fillColor=none;align=left;verticalAlign=middle;spacingLeft=10;spacingRight=4;overflow=hidden;rotatable=0;points=[[0,0.5],[1,0.5]];portConstraint=eastwest;fontSize=11;" parent="legend" vertex="1">
          <mxGeometry y="60" width="700" height="30" as="geometry" />
        </mxCell>
        <mxCell id="legend3" value="🟡 Yellow: Presentation Layer (Controllers, APIs)" style="text;strokeColor=none;fillColor=none;align=left;verticalAlign=middle;spacingLeft=10;spacingRight=4;overflow=hidden;rotatable=0;points=[[0,0.5],[1,0.5]];portConstraint=eastwest;fontSize=11;" parent="legend" vertex="1">
          <mxGeometry y="90" width="700" height="30" as="geometry" />
        </mxCell>
        <mxCell id="legend4" value="🟢 Green: Business Logic Layer (Services)" style="text;strokeColor=none;fillColor=none;align=left;verticalAlign=middle;spacingLeft=10;spacingRight=4;overflow=hidden;rotatable=0;points=[[0,0.5],[1,0.5]];portConstraint=eastwest;fontSize=11;" parent="legend" vertex="1">
          <mxGeometry y="120" width="700" height="30" as="geometry" />
        </mxCell>
        <mxCell id="legend5" value="🔴 Red: Data Access Layer (Repositories, Entities)" style="text;strokeColor=none;fillColor=none;align=left;verticalAlign=middle;spacingLeft=10;spacingRight=4;overflow=hidden;rotatable=0;points=[[0,0.5],[1,0.5]];portConstraint=eastwest;fontSize=11;" parent="legend" vertex="1">
          <mxGeometry y="150" width="700" height="30" as="geometry" />
        </mxCell>
        <mxCell id="legend6" value="⚪ Gray: Cross-Cutting Concerns (DTOs, Config, Utils)" style="text;strokeColor=none;fillColor=none;align=left;verticalAlign=middle;spacingLeft=10;spacingRight=4;overflow=hidden;rotatable=0;points=[[0,0.5],[1,0.5]];portConstraint=eastwest;fontSize=11;" parent="legend" vertex="1">
          <mxGeometry y="180" width="700" height="30" as="geometry" />
        </mxCell>
      </root>
    </mxGraphModel>
  </diagram>
</mxfile>
